<svg xmlns="http://www.w3.org/2000/svg" xmlns:xlink="http://www.w3.org/1999/xlink" fill="none" version="1.1" width="182" height="84" viewBox="0 0 182 84"><defs><clipPath id="master_svg0_267_02644"><rect x="28" y="18" width="48" height="48" rx="0"/></clipPath></defs><g><rect x="8" y="8" width="166" height="68" rx="8" fill="#FFFFFF" fill-opacity="0.4000000059604645"/><rect x="4" y="4" width="174" height="76" rx="12" fill-opacity="0" stroke-opacity="1" stroke="#0256FF" fill="none" stroke-width="8"/><g clip-path="url(#master_svg0_267_02644)"><g><path d="M49.0043,20.80528225C49.915400000000005,20.28027625,50.9484,20.00390625,52,20.00390625C53.0516,20.00390625,54.0848,20.28029825,54.9958,20.80534625C54.9972,20.80614825,54.998599999999996,20.80695025,55,20.80775425C55,20.80775425,69,28.80772625,69,28.80772625C69.74000000000001,29.23496625,70.37819999999999,29.814106250000002,70.8738,30.50450625C70.99459999999999,30.62530625,71.10159999999999,30.763606250000002,71.19120000000001,30.91840625C71.2684,31.051706250000002,71.3284,31.19020625,71.372,31.33140625C71.7834,32.15840625,71.999,33.070806250000004,72,33.99770625C72,33.99770625,72,50.001906250000005,72,50.001906250000005C71.999,51.054106250000004,71.72120000000001,52.08750625,71.19460000000001,52.99830625C70.668,53.90930625,69.91120000000001,54.66570625,69,55.19190625C69,55.19190625,68.9922,55.19630625,68.9922,55.19630625C68.9922,55.19630625,55,63.19190625,55,63.19190625C54.9988,63.19250625,54.9976,63.19330625,54.9964,63.19390625C54.361999999999995,63.55970625,53.6684,63.80470625,52.9506,63.91990625C52.6678,64.07290625,52.344,64.15970625,52,64.15970625C51.656,64.15970625,51.3322,64.07290625,51.049499999999995,63.91990625C50.3317,63.80470625,49.6381,63.55970625,49.003699999999995,63.19390625C49.0025,63.19330625,49.0012,63.19250625,49,63.19190625C49,63.19190625,35.00772,55.19630625,35.00772,55.19630625C35.00772,55.19630625,35,55.19190625,35,55.19190625C34.08878,54.66570625,33.33194,53.90930625,32.805384,52.99830625C32.278828,52.08750625,32.0010792,51.054106250000004,32,50.001906250000005C32,50.001906250000005,32,33.99770625,32,33.99770625C32.000950814,33.070806250000004,32.216648,32.15840625,32.62804,31.33140625C32.67163,31.19020625,32.731652,31.051706250000002,32.808784,30.91840625C32.89833,30.763606250000002,33.00545,30.62530625,33.12616,30.50450625C33.62187,29.814106250000002,34.260040000000004,29.23496625,35,28.80774625C35,28.80774625,35.00772,28.80330625,35.00772,28.80330625C35.00772,28.80330625,41.505160000000004,25.090486249999998,41.505160000000004,25.090486249999998C41.80034,24.75788625,42.1924,24.54078625,42.6126,24.45764625C42.6126,24.45764625,49.0043,20.80528225,49.0043,20.80528225C49.0043,20.80528225,49.0043,20.80528225,49.0043,20.80528225ZM43.1,28.78618625C43.1,28.78618625,38.07798,31.65590625,38.07798,31.65590625C38.07798,31.65590625,52,39.70930625,52,39.70930625C52,39.70930625,57.013000000000005,36.809406249999995,57.013000000000005,36.809406249999995C57.013000000000005,36.809406249999995,43.1,28.78618625,43.1,28.78618625C43.1,28.78618625,43.1,28.78618625,43.1,28.78618625ZM61.010400000000004,34.49710625C61.010400000000004,34.49710625,47.1218,26.48798625,47.1218,26.48798625C47.1218,26.48798625,50.9923,24.27628625,50.9923,24.27628625C50.9923,24.27628625,51,24.27184625,51,24.27184625C51.304,24.09632625,51.6489,24.00390625,52,24.00390625C52.351,24.00390625,52.696,24.09632625,53,24.27184625C53,24.27184625,65.922,31.65590625,65.922,31.65590625C65.922,31.65590625,61.010400000000004,34.49710625,61.010400000000004,34.49710625C61.010400000000004,34.49710625,61.010400000000004,34.49710625,61.010400000000004,34.49710625ZM68,35.07490625C68,35.07490625,54,43.173306249999996,54,43.173306249999996C54,43.173306249999996,54,59.15630625,54,59.15630625C54,59.15630625,67,51.72770625,67,51.72770625C67.001,51.72710625,67.0022,51.72650625,67.00319999999999,51.72590625C67.30539999999999,51.550706250000005,67.5566,51.29910625,67.7316,50.996506249999996C67.907,50.69290625,67.9996,50.34850625,68,49.99770625C68,49.99770625,68,35.07490625,68,35.07490625C68,35.07490625,68,35.07490625,68,35.07490625ZM50,59.15630625C50,59.15630625,50,43.173306249999996,50,43.173306249999996C50,43.173306249999996,36,35.07490625,36,35.07490625C36,35.07490625,36,49.99870625,36,49.99870625C36.0005,50.34910625,36.09308,50.69310625,36.26846,50.996506249999996C36.44338,51.29910625,36.69452,51.550706250000005,36.99684,51.72590625C36.9979,51.72650625,36.99894,51.72710625,37,51.72770625C37,51.72770625,50,59.15630625,50,59.15630625C50,59.15630625,50,59.15630625,50,59.15630625Z" fill-rule="evenodd" fill="#0256FF" fill-opacity="1"/></g></g><g><path d="M87.104,55.952L94.976,55.952C100.224,55.952,104,53.712,104,49.04C104,45.84,102.048,43.984,99.36,43.44L99.36,43.28C101.504,42.576,102.72,40.432,102.72,38.16C102.72,33.936,99.232,32.368,94.432,32.368L87.104,32.368L87.104,55.952ZM90.816,42.224000000000004L90.816,35.28L94.08,35.28C97.408,35.28,99.072,36.239999999999995,99.072,38.672C99.072,40.879999999999995,97.568,42.224000000000004,93.984,42.224000000000004L90.816,42.224000000000004ZM90.816,53.04L90.816,45.04L94.56,45.04C98.304,45.04,100.352,46.224000000000004,100.352,48.848C100.352,51.728,98.24,53.04,94.56,53.04L90.816,53.04ZM111.776,56.4C112.70400000000001,56.4,113.312,56.24,113.76,56.048L113.312,53.264C112.96000000000001,53.328,112.832,53.328,112.672,53.328C112.224,53.328,111.80799999999999,52.976,111.80799999999999,51.984L111.80799999999999,30.448L108.128,30.448L108.128,51.792C108.128,54.672,109.12,56.4,111.776,56.4ZM124.73599999999999,56.4C129.088,56.4,132.992,53.008,132.992,47.152C132.992,41.296,129.088,37.903999999999996,124.73599999999999,37.903999999999996C120.352,37.903999999999996,116.416,41.296,116.416,47.152C116.416,53.008,120.352,56.4,124.73599999999999,56.4ZM124.73599999999999,53.328C121.952,53.328,120.22399999999999,50.896,120.22399999999999,47.152C120.22399999999999,43.44,121.952,40.944,124.73599999999999,40.944C127.488,40.944,129.216,43.44,129.216,47.152C129.216,50.896,127.488,53.328,124.73599999999999,53.328ZM143.392,63.856C149.024,63.856,152.576,61.104,152.576,57.68C152.576,54.704,150.4,53.424,146.272,53.424L143.008,53.424C140.768,53.424,140.064,52.72,140.064,51.696C140.064,50.832,140.48,50.352000000000004,141.024,49.872C141.792,50.192,142.72,50.384,143.488,50.384C147.168,50.384,150.07999999999998,48.176,150.07999999999998,44.304C150.07999999999998,42.992000000000004,149.6,41.84,148.95999999999998,41.104L152.288,41.104L152.288,38.32L146.048,38.32C145.376,38.096000000000004,144.48,37.903999999999996,143.488,37.903999999999996C139.84,37.903999999999996,136.672,40.239999999999995,136.672,44.208C136.672,46.32,137.792,47.984,139.008,48.912L139.008,49.04C137.984,49.712,137.024,50.896,137.024,52.304C137.024,53.712,137.728,54.64,138.624,55.248L138.624,55.376C136.992,56.368,136.064,57.744,136.064,59.216C136.064,62.288,139.136,63.856,143.392,63.856ZM143.488,47.984C141.664,47.984,140.16,46.576,140.16,44.208C140.16,41.84,141.632,40.495999999999995,143.488,40.495999999999995C145.344,40.495999999999995,146.816,41.872,146.816,44.208C146.816,46.576,145.312,47.984,143.488,47.984ZM143.904,61.424C140.992,61.424,139.232,60.368,139.232,58.672C139.232,57.776,139.648,56.88,140.704,56.112C141.44,56.304,142.24,56.368,143.072,56.368L145.728,56.368C147.84,56.368,148.99200000000002,56.816,148.99200000000002,58.288C148.99200000000002,59.92,146.976,61.424,143.904,61.424Z" fill="#0256FF" fill-opacity="1"/></g></g></svg>