<svg xmlns="http://www.w3.org/2000/svg" xmlns:xlink="http://www.w3.org/1999/xlink" fill="none" version="1.1" width="199" height="84" viewBox="0 0 199 84"><defs><clipPath id="master_svg0_267_02651"><rect x="28" y="18" width="48" height="48" rx="0"/></clipPath></defs><g><rect x="8" y="8" width="183" height="68" rx="8" fill="#FFFFFF" fill-opacity="0.4000000059604645"/><rect x="4" y="4" width="191" height="76" rx="12" fill-opacity="0" stroke-opacity="1" stroke="#FA5151" fill="none" stroke-width="8"/><g clip-path="url(#master_svg0_267_02651)"><g><path d="M34.21316,29.1079C34.21316,29.1079,52,41.5587,52,41.5587C52,41.5587,69.7868,29.1079,69.7868,29.1079C69.456,28.45384,68.77600000000001,28,68,28C68,28,36,28,36,28C35.22408,28,34.54392,28.45384,34.21316,29.1079C34.21316,29.1079,34.21316,29.1079,34.21316,29.1079ZM70,33.841319999999996C70,33.841319999999996,53.147,45.638400000000004,53.147,45.638400000000004C52.458200000000005,46.120599999999996,51.541799999999995,46.120599999999996,50.853,45.638400000000004C50.853,45.638400000000004,34,33.841319999999996,34,33.841319999999996C34,33.841319999999996,34,54,34,54C34,55.0954,34.904560000000004,56,36,56C36,56,68,56,68,56C69.0954,56,70,55.0954,70,54C70,54,70,33.841319999999996,70,33.841319999999996C70,33.841319999999996,70,33.841319999999996,70,33.841319999999996ZM30,30C30,26.69544,32.69544,24,36,24C36,24,68,24,68,24C71.3046,24,74,26.69544,74,30C74,30,74,54,74,54C74,57.3046,71.3046,60,68,60C68,60,36,60,36,60C32.69544,60,30,57.3046,30,54C30,54,30,30,30,30C30,30,30,30,30,30Z" fill-rule="evenodd" fill="#FA5151" fill-opacity="1"/></g></g><g><path d="M87.104,55.952L101.376,55.952L101.376,52.784L90.816,52.784L90.816,45.2L99.456,45.2L99.456,42.064L90.816,42.064L90.816,35.504000000000005L101.024,35.504000000000005L101.024,32.368L87.104,32.368L87.104,55.952ZM105.98400000000001,55.952L109.664,55.952L109.664,43.472C111.104,41.872,112.416,41.104,113.6,41.104C115.616,41.104,116.544,42.288,116.544,45.328L116.544,55.952L120.22399999999999,55.952L120.22399999999999,43.472C121.696,41.872,123.00800000000001,41.104,124.19200000000001,41.104C126.208,41.104,127.104,42.288,127.104,45.328L127.104,55.952L130.816,55.952L130.816,44.879999999999995C130.816,40.4,129.088,37.903999999999996,125.408,37.903999999999996C123.2,37.903999999999996,121.44,39.28,119.68,41.135999999999996C118.912,39.120000000000005,117.47200000000001,37.903999999999996,114.848,37.903999999999996C112.64,37.903999999999996,110.912,39.184,109.376,40.816L109.312,40.816L108.992,38.32L105.98400000000001,38.32L105.98400000000001,55.952ZM140.32,56.4C142.43200000000002,56.4,144.32,55.312,145.92000000000002,53.936L146.048,53.936L146.336,55.952L149.344,55.952L149.344,45.36C149.344,40.656,147.328,37.903999999999996,142.94400000000002,37.903999999999996C140.128,37.903999999999996,137.664,39.056,135.84,40.208L137.216,42.704C138.72,41.744,140.448,40.912,142.304,40.912C144.89600000000002,40.912,145.632,42.704,145.664,44.72C138.336,45.519999999999996,135.136,47.472,135.136,51.28C135.136,54.384,137.28,56.4,140.32,56.4ZM141.44,53.456C139.872,53.456,138.688,52.752,138.688,50.992000000000004C138.688,49.04,140.448,47.696,145.664,47.088L145.664,51.376C144.224,52.72,142.976,53.456,141.44,53.456ZM154.56,55.952L158.24,55.952L158.24,38.32L154.56,38.32L154.56,55.952ZM156.416,35.056C157.76,35.056,158.688,34.192,158.688,32.816C158.688,31.536,157.76,30.64,156.416,30.64C155.04000000000002,30.64,154.112,31.536,154.112,32.816C154.112,34.192,155.04000000000002,35.056,156.416,35.056ZM167.424,56.4C168.352,56.4,168.95999999999998,56.24,169.40800000000002,56.048L168.95999999999998,53.264C168.608,53.328,168.48000000000002,53.328,168.32,53.328C167.872,53.328,167.45600000000002,52.976,167.45600000000002,51.984L167.45600000000002,30.448L163.776,30.448L163.776,51.792C163.776,54.672,164.768,56.4,167.424,56.4Z" fill="#FA5151" fill-opacity="1"/></g></g></svg>