<svg xmlns="http://www.w3.org/2000/svg" xmlns:xlink="http://www.w3.org/1999/xlink" fill="none" version="1.1" width="324" height="84" viewBox="0 0 324 84"><defs><clipPath id="master_svg0_267_03162"><rect x="28" y="18" width="48" height="48" rx="0"/></clipPath></defs><g><rect x="8" y="8" width="308" height="68" rx="8" fill="#FFFFFF" fill-opacity="0.4000000059604645"/><rect x="4" y="4" width="316" height="76" rx="12" fill-opacity="0" stroke-opacity="1" stroke="#FFD147" fill="none" stroke-width="8"/><g clip-path="url(#master_svg0_267_03162)"><g><path d="M42,34C40.89543,34,40.0000000298024,33.10456,40.0000000298024,32C40.0000000298024,30.89543,40.89543,30,42,30C42,30,62,30,62,30C63.104600000000005,30,64,30.89543,64,32C64,32,64,52,64,52C64,53.104600000000005,63.104600000000005,54,62,54C60.895399999999995,54,60,53.104600000000005,60,52C60,52,60,36.82842,60,36.82842C60,36.82842,43.41422,53.4142,43.41422,53.4142C42.633160000000004,54.1952,41.36683,54.1952,40.585786,53.4142C39.804738,52.6332,39.804738,51.3668,40.585786,50.5858C40.585786,50.5858,57.1716,34,57.1716,34C57.1716,34,42,34,42,34C42,34,42,34,42,34Z" fill-rule="evenodd" fill="#FFB835" fill-opacity="1"/></g></g><g><path d="M96.736,56.4C99.936,56.4,102.592,55.184,104.16,53.616L104.16,43.408L96.128,43.408L96.128,46.480000000000004L100.768,46.480000000000004L100.768,51.984C99.968,52.688,98.56,53.136,97.12,53.136C92.224,53.136,89.632,49.68,89.632,44.111999999999995C89.632,38.576,92.544,35.184,96.928,35.184C99.2,35.184,100.64,36.144,101.824,37.296L103.80799999999999,34.928C102.4,33.424,100.16,31.951999999999998,96.832,31.951999999999998C90.56,31.951999999999998,85.792,36.56,85.792,44.208C85.792,51.952,90.432,56.4,96.736,56.4ZM116.288,56.4C120.64,56.4,124.544,53.008,124.544,47.152C124.544,41.296,120.64,37.903999999999996,116.288,37.903999999999996C111.904,37.903999999999996,107.968,41.296,107.968,47.152C107.968,53.008,111.904,56.4,116.288,56.4ZM116.288,53.328C113.504,53.328,111.776,50.896,111.776,47.152C111.776,43.44,113.504,40.944,116.288,40.944C119.03999999999999,40.944,120.768,43.44,120.768,47.152C120.768,50.896,119.03999999999999,53.328,116.288,53.328ZM142.016,56.4C143.296,56.4,144.512,56.048,145.472,55.728L144.8,53.008C144.288,53.2,143.52,53.424,142.94400000000002,53.424C141.088,53.424,140.352,52.336,140.352,50.224000000000004L140.352,41.296L144.928,41.296L144.928,38.32L140.352,38.32L140.352,33.456L137.28,33.456L136.864,38.32L134.112,38.544L134.112,41.296L136.672,41.296L136.672,50.192C136.672,53.904,138.07999999999998,56.4,142.016,56.4ZM155.84,56.4C160.192,56.4,164.096,53.008,164.096,47.152C164.096,41.296,160.192,37.903999999999996,155.84,37.903999999999996C151.45600000000002,37.903999999999996,147.52,41.296,147.52,47.152C147.52,53.008,151.45600000000002,56.4,155.84,56.4ZM155.84,53.328C153.05599999999998,53.328,151.328,50.896,151.328,47.152C151.328,43.44,153.05599999999998,40.944,155.84,40.944C158.59199999999998,40.944,160.32,43.44,160.32,47.152C160.32,50.896,158.59199999999998,53.328,155.84,53.328ZM175.648,55.952L179.328,55.952L179.328,43.472C180.768,41.872,182.07999999999998,41.104,183.264,41.104C185.28,41.104,186.208,42.288,186.208,45.328L186.208,55.952L189.888,55.952L189.888,43.472C191.36,41.872,192.672,41.104,193.856,41.104C195.872,41.104,196.768,42.288,196.768,45.328L196.768,55.952L200.48000000000002,55.952L200.48000000000002,44.879999999999995C200.48000000000002,40.4,198.752,37.903999999999996,195.072,37.903999999999996C192.864,37.903999999999996,191.10399999999998,39.28,189.344,41.135999999999996C188.576,39.120000000000005,187.136,37.903999999999996,184.512,37.903999999999996C182.304,37.903999999999996,180.576,39.184,179.04000000000002,40.816L178.976,40.816L178.656,38.32L175.648,38.32L175.648,55.952ZM206.656,63.312C210.336,63.312,212.192,60.784,213.568,57.008L220.032,38.32L216.48,38.32L213.632,47.408C213.184,49.007999999999996,212.704,50.736000000000004,212.256,52.368L212.096,52.368C211.55200000000002,50.704,211.00799999999998,48.976,210.464,47.408L207.232,38.32L203.488,38.32L210.464,55.824L210.07999999999998,57.04C209.44,58.928,208.32,60.336,206.43200000000002,60.336C205.952,60.336,205.44,60.176,205.12,60.08L204.416,62.96C205.024,63.184,205.728,63.312,206.656,63.312ZM238.624,56.4C242.592,56.4,246.208,52.912,246.208,46.864000000000004C246.208,41.424,243.68,37.903999999999996,239.232,37.903999999999996C237.376,37.903999999999996,235.52,38.864000000000004,233.984,40.208L234.112,37.2L234.112,30.448L230.432,30.448L230.432,55.952L233.344,55.952L233.664,54.128L233.792,54.128C235.264,55.568,237.024,56.4,238.624,56.4ZM237.92,53.296C236.864,53.296,235.456,52.88,234.112,51.728L234.112,43.120000000000005C235.552,41.712,236.896,40.976,238.272,40.976C241.216,40.976,242.4,43.248000000000005,242.4,46.928C242.4,51.024,240.48,53.296,237.92,53.296ZM254.208,56.4C255.136,56.4,255.744,56.24,256.192,56.048L255.744,53.264C255.392,53.328,255.264,53.328,255.104,53.328C254.656,53.328,254.24,52.976,254.24,51.984L254.24,30.448L250.56,30.448L250.56,51.792C250.56,54.672,251.552,56.4,254.208,56.4ZM267.168,56.4C271.52,56.4,275.424,53.008,275.424,47.152C275.424,41.296,271.52,37.903999999999996,267.168,37.903999999999996C262.784,37.903999999999996,258.848,41.296,258.848,47.152C258.848,53.008,262.784,56.4,267.168,56.4ZM267.168,53.328C264.384,53.328,262.656,50.896,262.656,47.152C262.656,43.44,264.384,40.944,267.168,40.944C269.91999999999996,40.944,271.648,43.44,271.648,47.152C271.648,50.896,269.91999999999996,53.328,267.168,53.328ZM285.824,63.856C291.456,63.856,295.00800000000004,61.104,295.00800000000004,57.68C295.00800000000004,54.704,292.832,53.424,288.704,53.424L285.44,53.424C283.2,53.424,282.496,52.72,282.496,51.696C282.496,50.832,282.91200000000003,50.352000000000004,283.456,49.872C284.224,50.192,285.152,50.384,285.91999999999996,50.384C289.6,50.384,292.512,48.176,292.512,44.304C292.512,42.992000000000004,292.03200000000004,41.84,291.392,41.104L294.72,41.104L294.72,38.32L288.48,38.32C287.808,38.096000000000004,286.91200000000003,37.903999999999996,285.91999999999996,37.903999999999996C282.272,37.903999999999996,279.10400000000004,40.239999999999995,279.10400000000004,44.208C279.10400000000004,46.32,280.224,47.984,281.44,48.912L281.44,49.04C280.416,49.712,279.456,50.896,279.456,52.304C279.456,53.712,280.15999999999997,54.64,281.05600000000004,55.248L281.05600000000004,55.376C279.424,56.368,278.496,57.744,278.496,59.216C278.496,62.288,281.568,63.856,285.824,63.856ZM285.91999999999996,47.984C284.096,47.984,282.592,46.576,282.592,44.208C282.592,41.84,284.06399999999996,40.495999999999995,285.91999999999996,40.495999999999995C287.776,40.495999999999995,289.248,41.872,289.248,44.208C289.248,46.576,287.744,47.984,285.91999999999996,47.984ZM286.336,61.424C283.424,61.424,281.664,60.368,281.664,58.672C281.664,57.776,282.08000000000004,56.88,283.13599999999997,56.112C283.872,56.304,284.672,56.368,285.504,56.368L288.15999999999997,56.368C290.272,56.368,291.424,56.816,291.424,58.288C291.424,59.92,289.408,61.424,286.336,61.424Z" fill="#FFB835" fill-opacity="1"/></g></g></svg>